<?xml version="1.0" encoding="utf-8"?>
<!-- Generator: Adobe Illustrator 16.0.0, SVG Export Plug-In . SVG Version: 6.00 Build 0)  -->
<!DOCTYPE svg PUBLIC "-//W3C//DTD SVG 1.1//EN" "http://www.w3.org/Graphics/SVG/1.1/DTD/svg11.dtd">
<svg version="1.1" id="Layer_1" xmlns="http://www.w3.org/2000/svg" xmlns:xlink="http://www.w3.org/1999/xlink" x="0px" y="0px"
	 width="168.772px" height="220.631px" viewBox="0 0 168.772 220.631" enable-background="new 0 0 168.772 220.631"
	 xml:space="preserve">
<g>
	<path fill="#FFFFFF" d="M47.265,96.479c0-13.048-10.577-23.633-23.64-23.633C10.576,72.846,0,83.43,0,96.479
		c0,13.049,10.577,23.626,23.625,23.626C36.688,120.105,47.265,109.528,47.265,96.479z"/>
	<path fill="#FFFFFF" d="M136.539,72.096c-13.26,0-24.01,10.748-24.01,24.001c0,13.267,10.75,24.008,24.01,24.008
		s24.001-10.742,24.001-24.008C160.54,82.844,149.797,72.096,136.539,72.096z"/>
	<path fill="#FFFFFF" d="M76.516,148.618c0-12.435-10.072-22.507-22.508-22.507c-12.425,0-22.506,10.072-22.506,22.507
		c0,12.42,10.081,22.507,22.506,22.507C66.443,171.125,76.516,161.039,76.516,148.618z"/>
	<path fill="#FFFFFF" d="M107.268,124.61c-12.837,0-23.245,10.414-23.245,23.258s10.408,23.258,23.245,23.258
		c12.857,0,23.271-10.414,23.271-23.258S120.125,124.61,107.268,124.61z"/>
	<path fill="#FFFFFF" d="M79.895,173.371c-13.057,0-23.634,10.572-23.634,23.626c0,13.057,10.577,23.634,23.634,23.634
		c13.046,0,23.632-10.577,23.632-23.634C103.527,183.943,92.941,173.371,79.895,173.371z"/>
	<path fill="#FFFFFF" d="M79.895,72.845c-13.057,0-23.634,10.572-23.634,23.626c0,13.056,10.577,23.634,23.634,23.634
		c13.046,0,23.632-10.578,23.632-23.634C103.527,83.417,92.941,72.845,79.895,72.845z"/>
</g>
<rect x="75.307" fill="#FFFFFF" width="9.927" height="63.102"/>
<path fill="#FFFFFF" d="M117.316,13.069c-4.868,4.233-8.68,9.314-11.219,14.609c-2.755,5.505-4.659,10.799-5.715,16.092
	c-1.272,5.083-1.909,9.53-2.119,12.917l-0.426,4.87v0.423h0.21l5.083,0.636c3.386,0.212,7.834,0.424,13.129,0
	c5.294-0.213,11.009-1.059,16.729-2.965c5.925-1.906,11.431-4.658,16.306-8.682c4.867-4.234,8.68-9.317,11.435-14.821
	c2.54-5.295,4.443-10.587,5.715-15.881c1.056-5.294,1.903-9.528,2.119-12.917l0.21-5.505l-5.293-0.423
	c-3.386-0.423-7.625-0.423-13.129-0.21c-5.294,0.422-10.799,1.27-16.725,3.176C127.905,6.08,122.401,8.834,117.316,13.069
	L117.316,13.069z"/>
</svg>
